<?xml version="1.0" standalone="no"?><?xml-stylesheet type="text/css" href="https://www.processon.com/themes/default/mind/icons/icons.css" ?><!DOCTYPE svg PUBLIC "-//W3C//DTD SVG 1.1//EN" "http://www.w3.org/Graphics/SVG/1.1/DTD/svg11.dtd">
<svg xmlns="http://www.w3.org/2000/svg" version="1.1" xlink="http://www.w3.org/1999/xlink" id="mind-svg-con" width="743px" height="294.109375px" style="position: absolute; left: 0px; top: 0px; width: 743px; height: 294.109px; background: rgb(247, 247, 247); z-index: 999;"><defs></defs><g id="svgbackgroundid"><defs></defs><rect x="0" y="0" width="743" height="294.109375" fill="#F7F7F7"></rect></g><g transform="translate(-9740, -9777)" id="sdjakdjak3"><defs></defs><g class="svg-topic-con" transform="translate(0.5,0.5)"><path part="right" sub="true" id="line_b034fae11d4c" d="M 9928 9936.5 L 10081 9936.5 C 10121 9936.5 10121 9907.5 10186 9907.5 L 10294 9907.5" stroke="#80BA4C" fill="none" stroke-linecap="round" stroke-width="3"></path><path part="right" sub="true" id="line_63d130461e6c" d="M 9928 9936.5 L 10081 9936.5 C 10121 9936.5 10121 10039.5 10186 10039.5 L 10246 10039.5" stroke="#02ACF4" fill="none" stroke-linecap="round" stroke-width="3"></path></g><g class="svg-connection-con" transform="translate(0.5,0.5)"></g><g class="svg-freesums-con" transform="translate(0.5,0.5)"></g><g class="svg-freebos-con" transform="translate(0.5,0.5)"></g></g><g id="63d130461e6c"><rect x="446" y="232" rx="1px" ry="1px" width="60" height="30" style="fill: transparent; stroke:none;"></rect><g><text text-anchor="start" align="top" anchor="start" font-size="16px" font-weight="normal" fill="rgb(13, 11, 34)" style="font-size:16px;font-family:微软雅黑;color:#0D0B22;font-style:normal;text-align:left;font-weight:normal;font-style: normal;"><tspan x="460" y="253.859375"><tspan>目标</tspan></tspan></text></g></g><g id="e3fd14e4ef89"><rect x="582" y="232.109375" rx="1px" ry="1px" width="83" height="30" style="fill: transparent; stroke:none;"></rect><g><text text-anchor="start" align="top" anchor="start" font-size="13px" font-weight="400" fill="rgb(13, 11, 34)" style="font-size:13px;font-family:微软雅黑;color:#0D0B22;font-style:normal;text-align:left;font-weight:400;font-style: normal;"><tspan x="591" y="252.75"><tspan>安全、高效</tspan></tspan></text></g></g><g id="b034fae11d4c"><rect x="446" y="99.84375" rx="1px" ry="1px" width="108" height="30" style="fill: transparent; stroke:none;"></rect><g><text text-anchor="start" align="top" anchor="start" font-size="16px" font-weight="normal" fill="rgb(13, 11, 34)" style="font-size:16px;font-family:微软雅黑;color:#0D0B22;font-style:normal;text-align:left;font-weight:normal;font-style: normal;"><tspan x="460" y="121.703125"><tspan>提供的功能</tspan></tspan></text></g></g><g id="b3482431826b"><rect x="630" y="30" rx="1px" ry="1px" width="83" height="30" style="fill: transparent; stroke:none;"></rect><g><text text-anchor="start" align="top" anchor="start" font-size="13px" font-weight="400" fill="rgb(13, 11, 34)" style="font-size:13px;font-family:微软雅黑;color:#0D0B22;font-style:normal;text-align:left;font-weight:400;font-style: normal;"><tspan x="639" y="50.640625"><tspan>处理机管理</tspan></tspan></text></g></g><g id="c124f42aba03"><rect x="630" y="76.640625" rx="1px" ry="1px" width="83" height="30" style="fill: transparent; stroke:none;"></rect><g><text text-anchor="start" align="top" anchor="start" font-size="13px" font-weight="400" fill="rgb(13, 11, 34)" style="font-size:13px;font-family:微软雅黑;color:#0D0B22;font-style:normal;text-align:left;font-weight:400;font-style: normal;"><tspan x="639" y="97.28125"><tspan>存储器管理</tspan></tspan></text></g></g><g id="a43b1928d147"><rect x="630" y="123.28125" rx="1px" ry="1px" width="70" height="30" style="fill: transparent; stroke:none;"></rect><g><text text-anchor="start" align="top" anchor="start" font-size="13px" font-weight="400" fill="rgb(13, 11, 34)" style="font-size:13px;font-family:微软雅黑;color:#0D0B22;font-style:normal;text-align:left;font-weight:400;font-style: normal;"><tspan x="639" y="143.921875"><tspan>文件管理</tspan></tspan></text></g></g><g id="31d9011ab477"><rect x="630" y="169.921875" rx="1px" ry="1px" width="70" height="30" style="fill: transparent; stroke:none;"></rect><g><text text-anchor="start" align="top" anchor="start" font-size="13px" font-weight="400" fill="rgb(13, 11, 34)" style="font-size:13px;font-family:微软雅黑;color:#0D0B22;font-style:normal;text-align:left;font-weight:400;font-style: normal;"><tspan x="639" y="190.5625"><tspan>设备管理</tspan></tspan></text></g></g><g transform="translate(446, 232)" id="sdjakdjak0"><g id="subline_63d130461e6c" transform="translate(0.5,-0.5)"><path id="line_e3fd14e4ef89" d="M 60 31 L 60 31 M 60 31 C 106 31 98 31 136 31 L 219 31" p="63d130461e6c" stroke="#02ACF4" fill="none" stroke-linecap="round" stroke-width="3"></path></g><g transform="translate(0.5,0)"></g><g class="svg-summary-con" transform="translate(0.5,0.5)"></g><g class="svg-boundary-con" transform="translate(0.5,0.5)"></g></g><g transform="translate(446, 30)" id="sdjakdjak1"><g id="subline_b034fae11d4c" transform="translate(0.5,-0.5)"><path id="line_b3482431826b" d="M 108 101 L 108 101 M 108 101 C 154 101 146 32 184 32 L 267 32" p="b034fae11d4c" stroke="#80BA4C" fill="none" stroke-linecap="round" stroke-width="3"></path><path id="line_c124f42aba03" d="M 108 101 L 108 101 M 108 101 C 154 101 146 78 184 78 L 267 78" p="b034fae11d4c" stroke="#80BA4C" fill="none" stroke-linecap="round" stroke-width="3"></path><path id="line_a43b1928d147" d="M 108 101 L 108 101 M 108 101 C 154 101 146 125 184 125 L 254 125" p="b034fae11d4c" stroke="#80BA4C" fill="none" stroke-linecap="round" stroke-width="3"></path><path id="line_31d9011ab477" d="M 108 101 L 108 101 M 108 101 C 154 101 146 171 184 171 L 254 171" p="b034fae11d4c" stroke="#80BA4C" fill="none" stroke-linecap="round" stroke-width="3"></path></g><g transform="translate(0.5,0)"></g><g class="svg-summary-con" transform="translate(0.5,0.5)"></g><g class="svg-boundary-con" transform="translate(0.5,0.5)"></g></g><g transform="translate(30, 126)" id="sdjakdjak2"><g id="subline_root" transform="translate(0.5,-0.5)"></g><g transform="translate(0.5,0)"></g><g class="svg-summary-con" transform="translate(0.5,0.5)"></g><g class="svg-boundary-con" transform="translate(0.5,0.5)"></g></g><g id="root"><rect x="30" y="126" rx="7px" ry="7px" width="316" height="67" style="fill: #ffffff; stroke:none;"></rect><g><text text-anchor="start" align="top" anchor="start" font-size="24px" font-weight="normal" fill="rgb(42, 46, 54)" style="font-size:24px;font-family:微软雅黑;color:#2A2E36;font-style:normal;text-align:left;font-weight:normal;font-style: normal;"><tspan x="68" y="168.296875"><tspan>作为系统资源的管理者</tspan></tspan></text></g></g></svg>
