<?xml version="1.0" standalone="no"?><?xml-stylesheet type="text/css" href="https://www.processon.com/themes/default/mind/icons/icons.css" ?><!DOCTYPE svg PUBLIC "-//W3C//DTD SVG 1.1//EN" "http://www.w3.org/Graphics/SVG/1.1/DTD/svg11.dtd">
<svg xmlns="http://www.w3.org/2000/svg" version="1.1" xlink="http://www.w3.org/1999/xlink" id="mind-svg-con" width="1022px" height="294.109375px" style="position: absolute; left: 0px; top: 0px; width: 1022px; height: 294.109px; background: rgb(247, 247, 247); z-index: 999;"><defs></defs><g id="svgbackgroundid"><defs></defs><rect x="0" y="0" width="1022" height="294.109375" fill="#F7F7F7"></rect></g><g transform="translate(-9620, -9777)" id="sdjakdjak3"><defs></defs><g class="svg-topic-con" transform="translate(0.5,0.5)"><path part="right" sub="true" id="line_59c9aab3f980" d="M 9868 9936.5 L 10081 9936.5 C 10121 9936.5 10121 9907.5 10186 9907.5 L 10294 9907.5" stroke="#7549C5" fill="none" stroke-linecap="round" stroke-width="3"></path><path part="right" sub="true" id="line_f92fe1472060" d="M 9868 9936.5 L 10081 9936.5 C 10121 9936.5 10121 10039.5 10186 10039.5 L 10246 10039.5" stroke="#BE49C4" fill="none" stroke-linecap="round" stroke-width="3"></path></g><g class="svg-connection-con" transform="translate(0.5,0.5)"></g><g class="svg-freesums-con" transform="translate(0.5,0.5)"></g><g class="svg-freebos-con" transform="translate(0.5,0.5)"></g></g><g id="f92fe1472060"><rect x="566" y="232" rx="1px" ry="1px" width="60" height="30" style="fill: transparent; stroke:none;"></rect><g><text text-anchor="start" align="top" anchor="start" font-size="16px" font-weight="normal" fill="rgb(13, 11, 34)" style="font-size:16px;font-family:微软雅黑;color:#0D0B22;font-style:normal;text-align:left;font-weight:normal;font-style: normal;"><tspan x="580" y="253.859375"><tspan>目标</tspan></tspan></text></g></g><g id="a032ae962617"><rect x="702" y="232.109375" rx="1px" ry="1px" width="96" height="30" style="fill: transparent; stroke:none;"></rect><g><text text-anchor="start" align="top" anchor="start" font-size="13px" font-weight="400" fill="rgb(13, 11, 34)" style="font-size:13px;font-family:微软雅黑;color:#0D0B22;font-style:normal;text-align:left;font-weight:400;font-style: normal;"><tspan x="711" y="252.75"><tspan>方便用户使用</tspan></tspan></text></g></g><g id="59c9aab3f980"><rect x="566" y="99.84375" rx="1px" ry="1px" width="108" height="30" style="fill: transparent; stroke:none;"></rect><g><text text-anchor="start" align="top" anchor="start" font-size="16px" font-weight="normal" fill="rgb(13, 11, 34)" style="font-size:16px;font-family:微软雅黑;color:#0D0B22;font-style:normal;text-align:left;font-weight:normal;font-style: normal;"><tspan x="580" y="121.703125"><tspan>提供的功能</tspan></tspan></text></g></g><g id="23d93dee26e9"><rect x="750" y="53.3125" rx="1px" ry="1px" width="70" height="30" style="fill: transparent; stroke:none;"></rect><g><text text-anchor="start" align="top" anchor="start" font-size="13px" font-weight="400" fill="rgb(13, 11, 34)" style="font-size:13px;font-family:微软雅黑;color:#0D0B22;font-style:normal;text-align:left;font-weight:400;font-style: normal;"><tspan x="759" y="73.953125"><tspan>命令接口</tspan></tspan></text></g></g><g id="bbe15baeaefd"><rect x="896" y="30" rx="1px" ry="1px" width="96" height="30" style="fill: transparent; stroke:none;"></rect><g><text text-anchor="start" align="top" anchor="start" font-size="13px" font-weight="400" fill="rgb(13, 11, 34)" style="font-size:13px;font-family:微软雅黑;color:#0D0B22;font-style:normal;text-align:left;font-weight:400;font-style: normal;"><tspan x="905" y="50.640625"><tspan>联机命令接口</tspan></tspan></text></g></g><g id="afe648f143c9"><rect x="896" y="76.640625" rx="1px" ry="1px" width="96" height="30" style="fill: transparent; stroke:none;"></rect><g><text text-anchor="start" align="top" anchor="start" font-size="13px" font-weight="400" fill="rgb(13, 11, 34)" style="font-size:13px;font-family:微软雅黑;color:#0D0B22;font-style:normal;text-align:left;font-weight:400;font-style: normal;"><tspan x="905" y="97.28125"><tspan>脱机命令接口</tspan></tspan></text></g></g><g id="5baa420564f1"><rect x="750" y="123.28125" rx="1px" ry="1px" width="70" height="30" style="fill: transparent; stroke:none;"></rect><g><text text-anchor="start" align="top" anchor="start" font-size="13px" font-weight="400" fill="rgb(13, 11, 34)" style="font-size:13px;font-family:微软雅黑;color:#0D0B22;font-style:normal;text-align:left;font-weight:400;font-style: normal;"><tspan x="759" y="143.921875"><tspan>程序接口</tspan></tspan></text></g></g><g id="d616b88df8b3"><rect x="750" y="169.921875" rx="1px" ry="1px" width="131" height="30" style="fill: transparent; stroke:none;"></rect><g><text text-anchor="start" align="top" anchor="start" font-size="13px" font-weight="400" fill="rgb(13, 11, 34)" style="font-size:13px;font-family:微软雅黑;color:#0D0B22;font-style:normal;text-align:left;font-weight:400;font-style: normal;"><tspan x="759" y="190.5625"><tspan>GUI（图形用户界面</tspan></tspan></text></g></g><g transform="translate(566, 232)" id="sdjakdjak0"><g id="subline_f92fe1472060" transform="translate(0.5,-0.5)"><path id="line_a032ae962617" d="M 60 31 L 60 31 M 60 31 C 106 31 98 31 136 31 L 232 31" p="f92fe1472060" stroke="#BE49C4" fill="none" stroke-linecap="round" stroke-width="3"></path></g><g transform="translate(0.5,0)"></g><g class="svg-summary-con" transform="translate(0.5,0.5)"></g><g class="svg-boundary-con" transform="translate(0.5,0.5)"></g></g><g transform="translate(566, 30)" id="sdjakdjak1"><g id="subline_59c9aab3f980" transform="translate(0.5,-0.5)"><path id="line_23d93dee26e9" d="M 108 101 L 108 101 M 108 101 C 154 101 146 55 184 55 L 254 55" p="59c9aab3f980" stroke="#7549C5" fill="none" stroke-linecap="round" stroke-width="3"></path><path id="line_bbe15baeaefd" d="M 254 55 L 254 55 M 254 55 C 300 55 292 32 330 32 L 426 32" p="23d93dee26e9" stroke="#7549C5" fill="none" stroke-linecap="round" stroke-width="3"></path><path id="line_afe648f143c9" d="M 254 55 L 254 55 M 254 55 C 300 55 292 78 330 78 L 426 78" p="23d93dee26e9" stroke="#7549C5" fill="none" stroke-linecap="round" stroke-width="3"></path><path id="line_5baa420564f1" d="M 108 101 L 108 101 M 108 101 C 154 101 146 125 184 125 L 254 125" p="59c9aab3f980" stroke="#7549C5" fill="none" stroke-linecap="round" stroke-width="3"></path><path id="line_d616b88df8b3" d="M 108 101 L 108 101 M 108 101 C 154 101 146 171 184 171 L 315 171" p="59c9aab3f980" stroke="#7549C5" fill="none" stroke-linecap="round" stroke-width="3"></path></g><g transform="translate(0.5,0)"></g><g class="svg-summary-con" transform="translate(0.5,0.5)"></g><g class="svg-boundary-con" transform="translate(0.5,0.5)"></g></g><g transform="translate(30, 126)" id="sdjakdjak2"><g id="subline_root" transform="translate(0.5,-0.5)"></g><g transform="translate(0.5,0)"></g><g class="svg-summary-con" transform="translate(0.5,0.5)"></g><g class="svg-boundary-con" transform="translate(0.5,0.5)"></g></g><g id="root"><rect x="30" y="126" rx="7px" ry="7px" width="436" height="67" style="fill: #ffffff; stroke:none;"></rect><g><text text-anchor="start" align="top" anchor="start" font-size="24px" font-weight="normal" fill="rgb(42, 46, 54)" style="font-size:24px;font-family:微软雅黑;color:#2A2E36;font-style:normal;text-align:left;font-weight:normal;font-style: normal;"><tspan x="68" y="168.296875"><tspan>作为用户和计算机硬件之间的接口</tspan></tspan></text></g></g></svg>
