<?xml version="1.0" standalone="no"?><?xml-stylesheet type="text/css" href="https://www.processon.com/themes/default/mind/icons/icons.css" ?><!DOCTYPE svg PUBLIC "-//W3C//DTD SVG 1.1//EN" "http://www.w3.org/Graphics/SVG/1.1/DTD/svg11.dtd">
<svg xmlns="http://www.w3.org/2000/svg" version="1.1" xlink="http://www.w3.org/1999/xlink" id="mind-svg-con" width="1078px" height="620.125px" style="position: absolute; left: 0px; top: 0px; width: 1078px; height: 620.125px; background: rgb(247, 247, 247); z-index: 999;"><defs></defs><g id="svgbackgroundid"><defs></defs><rect x="0" y="0" width="1078" height="620.125" fill="#F7F7F7"></rect></g><g transform="translate(-9920, -9614)" id="sdjakdjak3"><defs></defs><g class="svg-topic-con" transform="translate(0.5,0.5)"><path part="right" sub="true" id="line_438c973ceeab" d="M 10084 9936.5 L 10213 9936.5 C 10253 9936.5 10253 9720.5 10318 9720.5 L 10442 9720.5" stroke="#0D7C82" fill="none" stroke-linecap="round" stroke-width="3"></path><path part="right" sub="true" id="line_003fc95eef24" d="M 10084 9936.5 L 10213 9936.5 C 10253 9936.5 10253 10016 10318 10016 L 10426 10016" stroke="#0F80C4" fill="none" stroke-linecap="round" stroke-width="3"></path></g><g class="svg-connection-con" transform="translate(0.5,0.5)"></g><g class="svg-freesums-con" transform="translate(0.5,0.5)"></g><g class="svg-freebos-con" transform="translate(0.5,0.5)"></g></g><g id="003fc95eef24"><rect x="398" y="371.453125" rx="1px" ry="1px" width="108" height="30" style="fill: transparent; stroke:none;"></rect><g><text text-anchor="start" align="top" anchor="start" font-size="16px" font-weight="normal" fill="rgb(13, 11, 34)" style="font-size:16px;font-family:微软雅黑;color:#0D0B22;font-style:normal;text-align:left;font-weight:normal;font-style: normal;"><tspan x="412" y="393.3125"><tspan>功能和目标</tspan></tspan></text></g></g><g id="dff00d27ddea"><rect x="582" y="254.953125" rx="1px" ry="1px" width="96" height="30" style="fill: transparent; stroke:none;"></rect><g><text text-anchor="start" align="top" anchor="start" font-size="13px" font-weight="400" fill="rgb(13, 11, 34)" style="font-size:13px;font-family:微软雅黑;color:#0D0B22;font-style:normal;text-align:left;font-weight:400;font-style: normal;"><tspan x="591" y="275.59375"><tspan>资源的管理者</tspan></tspan></text></g></g><g id="7547e5989b2c"><rect x="754" y="185" rx="1px" ry="1px" width="83" height="30" style="fill: transparent; stroke:none;"></rect><g><text text-anchor="start" align="top" anchor="start" font-size="13px" font-weight="400" fill="rgb(13, 11, 34)" style="font-size:13px;font-family:微软雅黑;color:#0D0B22;font-style:normal;text-align:left;font-weight:400;font-style: normal;"><tspan x="763" y="205.640625"><tspan>处理机管理</tspan></tspan></text></g></g><g id="62c8a368c755"><rect x="754" y="231.640625" rx="1px" ry="1px" width="83" height="30" style="fill: transparent; stroke:none;"></rect><g><text text-anchor="start" align="top" anchor="start" font-size="13px" font-weight="400" fill="rgb(13, 11, 34)" style="font-size:13px;font-family:微软雅黑;color:#0D0B22;font-style:normal;text-align:left;font-weight:400;font-style: normal;"><tspan x="763" y="252.28125"><tspan>存储器管理</tspan></tspan></text></g></g><g id="590e97a3a961"><rect x="754" y="278.28125" rx="1px" ry="1px" width="70" height="30" style="fill: transparent; stroke:none;"></rect><g><text text-anchor="start" align="top" anchor="start" font-size="13px" font-weight="400" fill="rgb(13, 11, 34)" style="font-size:13px;font-family:微软雅黑;color:#0D0B22;font-style:normal;text-align:left;font-weight:400;font-style: normal;"><tspan x="763" y="298.921875"><tspan>文件管理</tspan></tspan></text></g></g><g id="787b88eb9416"><rect x="754" y="324.921875" rx="1px" ry="1px" width="70" height="30" style="fill: transparent; stroke:none;"></rect><g><text text-anchor="start" align="top" anchor="start" font-size="13px" font-weight="400" fill="rgb(13, 11, 34)" style="font-size:13px;font-family:微软雅黑;color:#0D0B22;font-style:normal;text-align:left;font-weight:400;font-style: normal;"><tspan x="763" y="345.5625"><tspan>设备管理</tspan></tspan></text></g></g><g id="a4bdc87d41c7"><rect x="582" y="441.515625" rx="1px" ry="1px" width="109" height="30" style="fill: transparent; stroke:none;"></rect><g><text text-anchor="start" align="top" anchor="start" font-size="13px" font-weight="400" fill="rgb(13, 11, 34)" style="font-size:13px;font-family:微软雅黑;color:#0D0B22;font-style:normal;text-align:left;font-weight:400;font-style: normal;"><tspan x="591" y="462.15625"><tspan>向用户提供服务</tspan></tspan></text></g></g><g id="fbfc64646309"><rect x="767" y="394.875" rx="1px" ry="1px" width="70" height="30" style="fill: transparent; stroke:none;"></rect><g><text text-anchor="start" align="top" anchor="start" font-size="13px" font-weight="400" fill="rgb(13, 11, 34)" style="font-size:13px;font-family:微软雅黑;color:#0D0B22;font-style:normal;text-align:left;font-weight:400;font-style: normal;"><tspan x="776" y="415.515625"><tspan>命令接口</tspan></tspan></text></g></g><g id="b6e1e08e8aa3"><rect x="913" y="371.5625" rx="1px" ry="1px" width="96" height="30" style="fill: transparent; stroke:none;"></rect><g><text text-anchor="start" align="top" anchor="start" font-size="13px" font-weight="400" fill="rgb(13, 11, 34)" style="font-size:13px;font-family:微软雅黑;color:#0D0B22;font-style:normal;text-align:left;font-weight:400;font-style: normal;"><tspan x="922" y="392.203125"><tspan>联机命令接口</tspan></tspan></text></g></g><g id="ea03fe9b994a"><rect x="913" y="418.203125" rx="1px" ry="1px" width="96" height="30" style="fill: transparent; stroke:none;"></rect><g><text text-anchor="start" align="top" anchor="start" font-size="13px" font-weight="400" fill="rgb(13, 11, 34)" style="font-size:13px;font-family:微软雅黑;color:#0D0B22;font-style:normal;text-align:left;font-weight:400;font-style: normal;"><tspan x="922" y="438.84375"><tspan>脱机命令接口</tspan></tspan></text></g></g><g id="f80220a25218"><rect x="767" y="464.84375" rx="1px" ry="1px" width="70" height="30" style="fill: transparent; stroke:none;"></rect><g><text text-anchor="start" align="top" anchor="start" font-size="13px" font-weight="400" fill="rgb(13, 11, 34)" style="font-size:13px;font-family:微软雅黑;color:#0D0B22;font-style:normal;text-align:left;font-weight:400;font-style: normal;"><tspan x="776" y="485.484375"><tspan>程序接口</tspan></tspan></text></g></g><g id="e420ca53b011"><rect x="913" y="464.84375" rx="1px" ry="1px" width="135" height="30" style="fill: transparent; stroke:none;"></rect><g><text text-anchor="start" align="top" anchor="start" font-size="13px" font-weight="400" fill="rgb(13, 11, 34)" style="font-size:13px;font-family:微软雅黑;color:#0D0B22;font-style:normal;text-align:left;font-weight:400;font-style: normal;"><tspan x="922" y="485.484375"><tspan>由一组系统调用组成</tspan></tspan></text></g></g><g id="c11fbc4d1ba7"><rect x="767" y="511.484375" rx="1px" ry="1px" width="118" height="30" style="fill: transparent; stroke:none;"></rect><g><text text-anchor="start" align="top" anchor="start" font-size="13px" font-weight="400" fill="rgb(13, 11, 34)" style="font-size:13px;font-family:微软雅黑;color:#0D0B22;font-style:normal;text-align:left;font-weight:400;font-style: normal;"><tspan x="776" y="532.125"><tspan>GUI用户图形界面</tspan></tspan></text></g></g><g id="0c2fecbe32f4"><rect x="582" y="558.125" rx="1px" ry="1px" width="122" height="30" style="fill: transparent; stroke:none;"></rect><g><text text-anchor="start" align="top" anchor="start" font-size="13px" font-weight="400" fill="rgb(13, 11, 34)" style="font-size:13px;font-family:微软雅黑;color:#0D0B22;font-style:normal;text-align:left;font-weight:400;font-style: normal;"><tspan x="591" y="578.765625"><tspan>对硬件机器的扩展</tspan></tspan></text></g></g><g id="b5c4f3ee8d1a"><rect x="780" y="558.125" rx="1px" ry="1px" width="70" height="30" style="fill: transparent; stroke:none;"></rect><g><text text-anchor="start" align="top" anchor="start" font-size="13px" font-weight="400" fill="rgb(13, 11, 34)" style="font-size:13px;font-family:微软雅黑;color:#0D0B22;font-style:normal;text-align:left;font-weight:400;font-style: normal;"><tspan x="789" y="578.765625"><tspan>扩充机器</tspan></tspan></text></g></g><g id="438c973ceeab"><rect x="398" y="76.53125" rx="1px" ry="1px" width="124" height="29" style="fill: transparent; stroke:none;"></rect><g><text text-anchor="start" align="top" anchor="start" font-size="16px" font-weight="normal" fill="rgb(13, 11, 34)" style="font-size:16px;font-family:微软雅黑;color:#0D0B22;font-style:normal;text-align:left;font-weight:normal;font-style: normal;"><tspan x="412" y="98.390625"><tspan>概念（定义）</tspan></tspan></text></g></g><g id="10eecdb2ff2b"><rect x="598" y="30" rx="1px" ry="1px" width="278" height="30" style="fill: transparent; stroke:none;"></rect><g><text text-anchor="start" align="top" anchor="start" font-size="13px" font-weight="400" fill="rgb(13, 11, 34)" style="font-size:13px;font-family:微软雅黑;color:#0D0B22;font-style:normal;text-align:left;font-weight:400;font-style: normal;"><tspan x="607" y="50.640625"><tspan>负责管理协调硬件、软件等计算机资源的工作</tspan></tspan></text></g></g><g id="722967231088"><rect x="598" y="76.640625" rx="1px" ry="1px" width="265" height="30" style="fill: transparent; stroke:none;"></rect><g><text text-anchor="start" align="top" anchor="start" font-size="13px" font-weight="400" fill="rgb(13, 11, 34)" style="font-size:13px;font-family:微软雅黑;color:#0D0B22;font-style:normal;text-align:left;font-weight:400;font-style: normal;"><tspan x="607" y="97.28125"><tspan>为上层用户、应用程序提供简单易用的服务</tspan></tspan></text></g></g><g id="43b7514127f1"><rect x="598" y="123.28125" rx="1px" ry="1px" width="109" height="30" style="fill: transparent; stroke:none;"></rect><g><text text-anchor="start" align="top" anchor="start" font-size="13px" font-weight="400" fill="rgb(13, 11, 34)" style="font-size:13px;font-family:微软雅黑;color:#0D0B22;font-style:normal;text-align:left;font-weight:400;font-style: normal;"><tspan x="607" y="143.921875"><tspan>是一种系统软件</tspan></tspan></text></g></g><g transform="translate(398, 185)" id="sdjakdjak0"><g id="subline_003fc95eef24" transform="translate(0.5,-0.5)"><path id="line_dff00d27ddea" d="M 108 218 L 108 218 M 108 218 C 154 218 146 101 184 101 L 280 101" p="003fc95eef24" stroke="#0F80C4" fill="none" stroke-linecap="round" stroke-width="3"></path><path id="line_7547e5989b2c" d="M 280 101 L 280 101 M 280 101 C 326 101 318 32 356 32 L 439 32" p="dff00d27ddea" stroke="#0F80C4" fill="none" stroke-linecap="round" stroke-width="3"></path><path id="line_62c8a368c755" d="M 280 101 L 280 101 M 280 101 C 326 101 318 78 356 78 L 439 78" p="dff00d27ddea" stroke="#0F80C4" fill="none" stroke-linecap="round" stroke-width="3"></path><path id="line_590e97a3a961" d="M 280 101 L 280 101 M 280 101 C 326 101 318 125 356 125 L 426 125" p="dff00d27ddea" stroke="#0F80C4" fill="none" stroke-linecap="round" stroke-width="3"></path><path id="line_787b88eb9416" d="M 280 101 L 280 101 M 280 101 C 326 101 318 171 356 171 L 426 171" p="dff00d27ddea" stroke="#0F80C4" fill="none" stroke-linecap="round" stroke-width="3"></path><path id="line_a4bdc87d41c7" d="M 108 218 L 108 218 M 108 218 C 154 218 146 288 184 288 L 293 288" p="003fc95eef24" stroke="#0F80C4" fill="none" stroke-linecap="round" stroke-width="3"></path><path id="line_fbfc64646309" d="M 293 288 L 293 288 M 293 288 C 339 288 331 241 369 241 L 439 241" p="a4bdc87d41c7" stroke="#0F80C4" fill="none" stroke-linecap="round" stroke-width="3"></path><path id="line_b6e1e08e8aa3" d="M 439 241 L 439 241 M 439 241 C 485 241 477 218 515 218 L 611 218" p="fbfc64646309" stroke="#0F80C4" fill="none" stroke-linecap="round" stroke-width="3"></path><path id="line_ea03fe9b994a" d="M 439 241 L 439 241 M 439 241 C 485 241 477 265 515 265 L 611 265" p="fbfc64646309" stroke="#0F80C4" fill="none" stroke-linecap="round" stroke-width="3"></path><path id="line_f80220a25218" d="M 293 288 L 293 288 M 293 288 C 339 288 331 311 369 311 L 439 311" p="a4bdc87d41c7" stroke="#0F80C4" fill="none" stroke-linecap="round" stroke-width="3"></path><path id="line_e420ca53b011" d="M 439 311 L 439 311 M 439 311 C 485 311 477 311 515 311 L 650 311" p="f80220a25218" stroke="#0F80C4" fill="none" stroke-linecap="round" stroke-width="3"></path><path id="line_c11fbc4d1ba7" d="M 293 288 L 293 288 M 293 288 C 339 288 331 358 369 358 L 487 358" p="a4bdc87d41c7" stroke="#0F80C4" fill="none" stroke-linecap="round" stroke-width="3"></path><path id="line_0c2fecbe32f4" d="M 108 218 L 108 218 M 108 218 C 154 218 146 405 184 405 L 306 405" p="003fc95eef24" stroke="#0F80C4" fill="none" stroke-linecap="round" stroke-width="3"></path><path id="line_b5c4f3ee8d1a" d="M 306 405 L 306 405 M 306 405 C 352 405 344 405 382 405 L 452 405" p="0c2fecbe32f4" stroke="#0F80C4" fill="none" stroke-linecap="round" stroke-width="3"></path></g><g transform="translate(0.5,0)"></g><g class="svg-summary-con" transform="translate(0.5,0.5)"></g><g class="svg-boundary-con" transform="translate(0.5,0.5)"></g></g><g transform="translate(398, 30)" id="sdjakdjak1"><g id="subline_438c973ceeab" transform="translate(0.5,-0.5)"><path id="line_10eecdb2ff2b" d="M 124 77 L 124 77 M 124 77 C 170 77 162 32 200 32 L 478 32" p="438c973ceeab" stroke="#0D7C82" fill="none" stroke-linecap="round" stroke-width="3"></path><path id="line_722967231088" d="M 124 77 L 124 77 M 124 77 C 170 77 162 78 200 78 L 465 78" p="438c973ceeab" stroke="#0D7C82" fill="none" stroke-linecap="round" stroke-width="3"></path><path id="line_43b7514127f1" d="M 124 77 L 124 77 M 124 77 C 170 77 162 125 200 125 L 309 125" p="438c973ceeab" stroke="#0D7C82" fill="none" stroke-linecap="round" stroke-width="3"></path></g><g transform="translate(0.5,0)"></g><g class="svg-summary-con" transform="translate(0.5,0.5)"></g><g class="svg-boundary-con" transform="translate(0.5,0.5)"></g></g><g transform="translate(30, 289)" id="sdjakdjak2"><g id="subline_root" transform="translate(0.5,-0.5)"></g><g transform="translate(0.5,0)"></g><g class="svg-summary-con" transform="translate(0.5,0.5)"></g><g class="svg-boundary-con" transform="translate(0.5,0.5)"></g></g><g id="root"><rect x="30" y="289" rx="7px" ry="7px" width="268" height="67" style="fill: #ffffff; stroke:none;"></rect><g><text text-anchor="start" align="top" anchor="start" font-size="24px" font-weight="normal" fill="rgb(42, 46, 54)" style="font-size:24px;font-family:微软雅黑;color:#2A2E36;font-style:normal;text-align:left;font-weight:normal;font-style: normal;"><tspan x="68" y="331.296875"><tspan>操作系统的。。。</tspan></tspan></text></g></g></svg>
